<?xml version="1.0" encoding="utf-8"?>
<!-- Generator: Adobe Illustrator 16.0.0, SVG Export Plug-In . SVG Version: 6.00 Build 0)  -->
<!DOCTYPE svg PUBLIC "-//W3C//DTD SVG 1.1//EN" "http://www.w3.org/Graphics/SVG/1.1/DTD/svg11.dtd">
<svg version="1.1" id="Layer_1" xmlns="http://www.w3.org/2000/svg" xmlns:xlink="http://www.w3.org/1999/xlink" x="0px" y="0px"
	 width="1105px" height="318px" viewBox="0 0 1105 318" enable-background="new 0 0 1105 318" xml:space="preserve">
<g>
	<g>
		<g>
			<path fill="#FFFFFF" d="M728.225,12.008c0-2.986-2.72-5.696-5.716-5.696H613.743c-1.503,0-3.006,0.633-4.065,1.688
				c-1.06,1.076-1.529,2.558-1.529,4.062v23.136c0,2.964,2.893,5.615,5.86,5.615h57.173l-65.143,95.432
				c-3.725,5.443-3.088,8.829-3.088,9.959l0.06,26.544c0,5.701,2.113,8.234,8.635,5.475c39.84-16.839,82.277-17.84,114.271,1.304
				c2.616,1.58,5.784-0.125,5.784-4.593v-29.805c0-1.933-1.037-3.814-2.672-4.82c-18.474-11.674-41.979-14.779-64.784-14.433
				l60.903-84.684c2.92-4.062,3.081-8.406,3.081-9.585L728.225,12.008z"/>
			<path fill="#FFFFFF" d="M846.95,95.221c0,32.267-1.152,58.411-25.439,58.411c-23.126,0-25.445-26.144-25.445-58.411
				c0-32.273,1.936-58.822,25.445-58.443C844.251,37.157,846.95,62.948,846.95,95.221z M895.904,94.643
				c-0.027-53.1-31.171-93.442-74.394-92.945c-43.461,0.503-74.453,41.306-74.388,93.318c0.053,53.32,31.662,94.123,75.155,92.943
				C865.587,186.78,895.931,146.204,895.904,94.643z"/>
			<path fill="#FFFFFF" d="M1054.111,49.907c0-26.403-15.979-48.209-53.36-47.051c-17.348,0.52-30.869,13.724-38.38,32.397V11.262
				c0-3.013-2.725-5.729-5.714-5.729H924.75c-2.995,0-5.722,2.716-5.722,5.729v167.134c0,2.986,2.727,5.696,5.722,5.696h33.372
				c2.988,0,5.714-2.71,5.714-5.696V73.416c0-15.632,13.383-28.837,25.732-29.313c10.187-0.374,20.373,9.412,20.373,20.453v113.84
				c0,2.986,2.714,5.696,5.709,5.696h32.751c2.989,0,5.714-2.71,5.714-5.696L1054.111,49.907z"/>
			<path fill="#FFFFFF" d="M524.338,97.671v21.659c0,16.785-11.133,31.093-20.336,33.852c-18.14,5.47-29.916-8.633-29.47-23.666
				c0.56-18.993,17.262-30.585,31.361-31.11L524.338,97.671z M569.261,46.364c0-28.081-24.285-45.969-71.341-44.314
				c-28.73,1.006-56.059,11.695-63.11,46.423c-0.318,1.559,0.043,3.235,0.97,4.517c0.928,1.277,2.41,2.131,3.98,2.31l29.303,3.359
				c2.807,0.297,5.683-1.785,6.248-4.543c2.113-10.938,10.417-19.042,22.609-19.042c18.162,0,26.023,9.359,26.023,21.751v16.239
				l-36.202,2.759c-30.619,2.332-59.117,22.308-59.716,60.575c-0.546,35.226,22.841,52.012,54.763,50.383
				c19.012-1.007,35.589-9.131,48.155-23.137l18.072,20.129c1.02,1.125,2.506,1.828,4.034,1.877c1.522,0.049,3.062-0.53,4.163-1.579
				l23.518-22.486c1.974-1.904,2.282-5.271,0.691-7.477l-8.65-11.393c-1.764-2.309-3.51-12.593-3.51-18.44V46.364z"/>
			<path fill="#FFFFFF" d="M96.318,97.655v21.622c0,16.791-11.13,31.092-20.333,33.852c-18.141,5.468-29.917-8.634-29.474-23.666
				c0.563-18.987,17.264-30.558,31.366-31.104L96.318,97.655z M141.241,46.309c0-28.075-24.284-45.963-71.339-44.308
				C41.173,3.002,13.838,13.691,6.793,48.446c-0.319,1.53,0.043,3.213,0.971,4.489c0.927,1.283,2.406,2.158,3.977,2.337
				l29.303,3.337c2.812,0.325,5.686-1.758,6.248-4.543c2.117-10.938,10.419-19.02,22.611-19.02c18.162,0,26.027,9.337,26.027,21.73
				v16.26l-36.208,2.732C29.104,78.105,0.607,98.077,0.01,136.343c-0.551,35.254,22.838,52.039,54.756,50.384
				c19.014-0.979,35.594-9.104,48.16-23.132l18.072,20.123c1.019,1.131,2.509,1.834,4.031,1.904
				c1.527,0.055,3.063-0.524,4.164-1.584l23.522-22.503c1.973-1.878,2.284-5.27,0.687-7.476l-8.651-11.366
				c-1.757-2.336-3.509-12.625-3.509-18.473V46.309z"/>
			<path fill="#FFFFFF" d="M399.384,58.513c0.726-66.915-68.573-76.987-90.615-27.383c-17.145-38.59-71.328-37.308-86.091,0.303
				l0.008-19.696c0-2.985-2.723-5.723-5.713-5.723h-30.765c-2.993,0-5.718,2.737-5.718,5.723V178.25
				c0,2.986,2.725,5.718,5.718,5.718h33.063c2.993,0,5.631-2.731,5.631-5.718V72.658c0-11.917,5.036-25.37,17.651-28.15
				c13.874-3.089,25.19,4.586,25.19,20.625l-0.008,113.116c0,2.986,2.723,5.718,5.715,5.718h33.623c2.993,0,5.715-2.731,5.715-5.718
				l0.006-112.191c0-25.44,42.309-32.013,42.312,0V178.25c0,2.986,2.723,5.718,5.71,5.718h32.857c2.991,0,5.713-2.731,5.713-5.718
				L399.384,58.513z"/>
		</g>
		<g>
			<path fill="#FFFFFF" d="M1093.046,17.229c0,0.48-0.113,0.903-0.281,1.281c-0.2,0.4-0.476,0.752-0.866,1.055
				c-0.388,0.276-0.886,0.525-1.47,0.676c-0.573,0.174-1.264,0.228-2.065,0.228h-2.952v-6.476h2.541
				c0.606,0,1.075,0.027,1.471,0.055c0.362,0.021,0.681,0.097,0.984,0.146c0.951,0.228,1.622,0.601,2.032,1.13
				C1092.824,15.828,1093.046,16.477,1093.046,17.229z M1097.608,30.73c0-0.076-0.042-0.179-0.085-0.325
				c-0.045-0.151-0.152-0.4-0.304-0.758l-2.044-4.235c-0.26-0.476-0.497-0.909-0.713-1.303c-0.26-0.378-0.499-0.73-0.757-1.034
				c-0.254-0.276-0.558-0.524-0.86-0.752c-0.303-0.227-0.644-0.373-1.012-0.524c0.645-0.2,1.255-0.455,1.806-0.73
				c0.542-0.275,1.018-0.627,1.407-1.027c0.39-0.374,0.671-0.828,0.882-1.331c0.208-0.525,0.324-1.104,0.324-1.758
				c0-0.649-0.132-1.25-0.342-1.807c-0.236-0.547-0.582-1.028-1.038-1.455c-0.476-0.427-1.038-0.773-1.708-1.055
				c-0.687-0.276-1.482-0.477-2.348-0.628c-0.302-0.021-0.644-0.021-1.032-0.07c-0.388-0.027-0.881-0.054-1.443-0.054h-4.856
				c-0.276,0-0.535,0.103-0.766,0.232c-0.238,0.174-0.347,0.45-0.347,0.828V30.73c0,0.075,0.021,0.152,0.065,0.2
				c0.043,0.076,0.107,0.129,0.238,0.151c0.107,0.027,0.252,0.048,0.469,0.076c0.189,0.027,0.427,0.027,0.729,0.027
				c0.304,0,0.541,0,0.736-0.027c0.194-0.027,0.345-0.049,0.454-0.076c0.107-0.022,0.193-0.076,0.26-0.151
				c0.043-0.048,0.086-0.125,0.086-0.2v-8.179h2.021c0.693,0,1.276,0.071,1.775,0.27c0.49,0.179,0.917,0.406,1.291,0.73
				c0.362,0.331,0.688,0.681,0.945,1.104c0.26,0.428,0.521,0.904,0.774,1.406l2.092,4.539c0.044,0.13,0.108,0.205,0.174,0.282
				c0.064,0.097,0.151,0.177,0.28,0.199c0.108,0.048,0.261,0.048,0.454,0.103c0.196,0,0.456,0,0.757,0c0.346,0,0.644,0,0.854,0
				c0.195-0.055,0.347-0.055,0.498-0.103c0.107-0.022,0.174-0.076,0.217-0.151C1097.588,30.882,1097.608,30.806,1097.608,30.73z"/>
			<path fill="#FFFFFF" d="M1084.567,34.246c-6.77-2.71-10.063-10.391-7.354-17.164c2.704-6.772,10.388-10.062,17.151-7.351
				c6.77,2.704,10.062,10.386,7.354,17.159C1099.015,33.667,1091.331,36.951,1084.567,34.246z M1105,21.994
				c0-2.354-0.54-4.69-1.563-6.794c-1.372-2.84-3.632-5.242-6.391-6.778c-5.331-2.986-12.479-2.456-17.216,1.385
				c-4.536,3.657-6.883,9.986-5.492,15.682c0.723,2.953,2.254,5.766,4.514,7.854c4.309,3.911,10.889,5.295,16.29,3.11
				c4.392-1.807,7.927-5.598,9.241-10.164C1104.789,24.882,1105,23.428,1105,21.994z"/>
		</g>
	</g>
	<g>
		<g>
			<path fill="#FFFFFF" d="M665.249,284.767c-6.693,16.006,9.615,5.565,11.627,3.732c21.994-19.918,38.183-79.714,28.225-88.85
				c-12.562-11.489-70.864-11.392-96.698,7.481c-10.793,7.902-4.748,9.434,6.64,8.73c19.918-1.254,37.815-2.564,53.117-1.254
				c14.523,1.254,15.346,8.33,11.619,23.659C675.448,256.085,672.728,266.921,665.249,284.767z"/>
			<path fill="#FFFFFF" d="M641.362,236.612c-150.401,61.45-323.937,52.92-466.687-22.379c-1.971-1.033-8.965-5.047-16.935-9.035
				c-6.229-3.114-7.413-2.086-8.418-0.979c-1.395,1.504-0.868,4.241,1.35,6.243c83.826,75.553,184.608,111.888,294.641,107.122
				c83.992-3.662,162.257-34.479,207.079-67.271c6.608-4.847,8.977-11.138,6.224-14.102
				C655.799,233.176,648.349,233.75,641.362,236.612z"/>
		</g>
	</g>
</g>
</svg>
